<svg xmlns="http://www.w3.org/2000/svg" viewBox="0 0 512 512" style="enable-background:new 0 0 512 512" xml:space="preserve"><path d="M490.667 64h-357.59a21.333 21.333 0 0 0-17.848 9.647L3.485 244.314a21.334 21.334 0 0 0 0 23.372l111.744 170.667A21.333 21.333 0 0 0 133.077 448h357.589c11.782 0 21.333-9.551 21.333-21.333V85.333C512 73.551 502.449 64 490.667 64zm-21.334 341.333H144.609L46.833 256l97.776-149.333h324.725v298.666z"/><path d="M198.246 356.418c8.331 8.331 21.839 8.331 30.17 0l70.248-70.248 70.248 70.248c8.331 8.331 21.839 8.331 30.17 0s8.331-21.839 0-30.17L328.834 256l70.248-70.248c8.331-8.331 8.331-21.839 0-30.17s-21.839-8.331-30.17 0l-70.248 70.248-70.248-70.248c-8.331-8.331-21.839-8.331-30.17 0-8.331 8.331-8.331 21.839 0 30.17L268.495 256l-70.248 70.248c-8.332 8.332-8.332 21.839-.001 30.17z"/></svg>